<svg width="800" height="800" viewBox="0 0 800 800" xmlns="http://www.w3.org/2000/svg">
<defs>
<clipPath id="logoClip">
<path fill-rule="evenodd" d="
M165.29 165.29
H517.36
V400
H400
V517.36
H282.65
V634.72
H165.29
Z
M282.65 282.65
V400
H400
V282.65
Z
"/>
<path d="M517.36 400 H634.72 V634.72 H517.36 Z"/>
</clipPath>
<linearGradient id="logoBgGrad" x1="0%" y1="0%" x2="100%" y2="100%">
<stop offset="0%" stop-color="#7c3aed"/>
<stop offset="100%" stop-color="#2563eb"/>
</linearGradient>
</defs>
<g clip-path="url(#logoClip)">
<rect x="0" y="0" width="800" height="800" fill="url(#logoBgGrad)"/>
<g font-family="monospace" font-size="16" fill="#ffffff" fill-opacity="0.55">
<text x="150" y="180">3141592653589793238462643383279502</text>
<text x="150" y="202">8841971693993751058209749445923078</text>
<text x="150" y="224">1640628620899862803482534211706798</text>
<text x="150" y="246">2148086513282306647093844609550582</text>
<text x="150" y="268">2317253594081284811174502841027019</text>
<text x="150" y="290">3852110555964462294895493038196442</text>
<text x="150" y="312">8810975665933446128475648233786783</text>
<text x="150" y="334">1652712019091456485669234603486104</text>
<text x="150" y="356">5432664821339360726024914127372458</text>
<text x="150" y="378">7006606315588174881520920962829254</text>
<text x="150" y="400">0917153643678925903600113305305488</text>
<text x="150" y="422">2046652138414695194151160931415926</text>
<text x="150" y="444">5358979323846264338327950288419716</text>
<text x="150" y="466">9399375105820974944592307816406286</text>
<text x="150" y="488">2089986280348253421170679821480865</text>
<text x="150" y="510">1328230664709384460955058223172535</text>
<text x="150" y="532">9408128481117450284102701938521105</text>
<text x="150" y="554">5596446229489549303819644288109756</text>
<text x="150" y="576">6593344612847564823378678316527120</text>
<text x="150" y="598">1909145648566923460348610454326648</text>
<text x="150" y="620">2133936072602491412737245870066063</text>
</g>
</g>
</svg>
